<?xml version="1.0" encoding="UTF-8" standalone="no"?>
<svg
   preserveAspectRatio="xMinYMid meet"
   viewBox="13.2 12.6 370.8 123"
   version="1.1"
   id="svg4"
   sodipodi:docname="logo-optimized.svg"
   inkscape:version="1.3.2 (091e20e, 2023-11-25, custom)"
   xmlns:inkscape="http://www.inkscape.org/namespaces/inkscape"
   xmlns:sodipodi="http://sodipodi.sourceforge.net/DTD/sodipodi-0.dtd"
   xmlns="http://www.w3.org/2000/svg"
   xmlns:svg="http://www.w3.org/2000/svg">
  <defs
     id="defs4" />
  <sodipodi:namedview
     id="namedview4"
     pagecolor="#ffffff"
     bordercolor="#000000"
     borderopacity="0.25"
     inkscape:showpageshadow="2"
     inkscape:pageopacity="0.0"
     inkscape:pagecheckerboard="0"
     inkscape:deskcolor="#d1d1d1"
     inkscape:zoom="8.1618585"
     inkscape:cx="184.5168"
     inkscape:cy="30.875321"
     inkscape:window-width="1920"
     inkscape:window-height="991"
     inkscape:window-x="-9"
     inkscape:window-y="-9"
     inkscape:window-maximized="1"
     inkscape:current-layer="svg4" />
  <g
     fill-rule="evenodd"
     id="g1">
    <path
       d="m 153.6,34.5 c -7.3,0.8 -14.4,6.1 -17.2,12.7 -6.7,15.9 8.6,31.6 24,24.5 3.2,-1.5 7,-6.7 6.7,-9.6 0,-1.3 0,-1.2 -2,1.5 -4.2,5.8 -13.3,7.2 -18.2,2.9 -6.4,-5.7 -6.8,-12.8 -1.3,-19.1 1.8,-2 2,-2 4.9,-3.2 4.6,-1.8 7.3,-1.9 12.5,-0.3 3.06966,0.779074 5.93494,2.211713 8.4,4.2 7.26474,5.085318 -3.22665,-2.928473 8.5,5.6 2.01197,1.621419 4.23162,2.966662 6.6,4 8.5,3.8 9,4 12.9,4 4.2,0 5.8,-0.4 8,-1.8 2.13333,-1.066667 1.83333,-1.533333 -0.9,-1.4 -7.2,0 -16.5528,-7.851078 -24.3,-12.7 -2.56563,-1.605814 -4.52853,-3.537354 -7.3,-5.4 -2.77147,-1.862646 -6.27972,-3.724127 -9.7,-5 -2.5,-0.7 -8.5,-1.2 -11.6,-0.9"
       data-index="3"
       fill="#ebdbc0"
       id="kept_light_shape_2"
       sodipodi:nodetypes="ccccccccccccsccascc" />
    <path
       d="m 158,30.1 -3.8,1 -0.9,0.3 h 3.9 c 5.4,0 7.2,0.4 12.8,2.8 3.4,1.4 8,4.4 10.7,6.8 1.2,1.1 2.4,2 2.5,1.8 0.4,-0.4 -5.5,-5.8 -8.9,-8.2 -4.81134,-3.20661 -10.52499,-4.783997 -16.3,-4.5 m -3.9,16 c -2,0.3 -4.7,1.8 -6.2,3.4 -5,5.3 -2.7,14.5 4,15.8 1.2,0.333333 1.2,0.166667 0,-0.5 -3.7,-2.1 -5.8,-7.2 -4.3,-10.5 3.7,-7.8 12.5,-7.6 24.7,0.7 6.8,4.6 8.6,5.7 12.4,7.4 4.3,1.9 8.8,3 11,2.5 0.86667,-0.133333 0.6,-0.333333 -0.8,-0.6 C 187.22822,62.015894 180.11227,58.168517 174,53 166,47.2 159.7,45 154.1,46 M 30,90.4 c -6.4,1.2 -10,6.2 -8.2,11.7 1,3.3 2.9,4.8 9.3,7.3 7,2.8 9,4.5 9,7.4 0,1.5 -1.5,3.5 -3.2,4.4 -3,1.4 -9.5,0.4 -12.9,-2 -1,-0.8 -1.1,-0.6 -1.8,2 -0.6,2.2 5.4,4.3 11.4,4 9.5,-0.2 14.4,-7.5 9.8,-14.3 -1.466667,-2.06667 -5,-4.13333 -10.6,-6.2 -4.4,-1.53333 -6.566667,-3.5 -6.5,-5.9 0,-5 6.7,-6.8 12.5,-3.4 2,1.1 2,1.1 2.6,-1.1 l 0.3,-1.5 -0.4,-0.4 c -2,-1.6 -7.6,-2.6 -11.3,-2 m 148.8,-0.1 -1.6,0.2 c -11.7,1.7 -17.9,14.7 -12.3,25.7 6,12.1 25.8,12 31.8,0 4,-7.8 2,-17.7 -4.4,-22.5 -3.4,-2.5 -9.3,-4 -13.5,-3.4 m 88.8,0.3 c -0.5,0.3 -0.6,0.5 -1.9,3.4 l -9,21.4 c -2,4.3 -3.4,8 -3.4,8.5 v 0.5 l 1.3,0.2 c 2.7,0.3 2.4,0.6 5.4,-6.8 1.7,-3.9 0.6,-3.5 8.3,-3.5 7.7,0 6.8,-0.4 8.5,3.7 2.1,5 2.8,6.3 3.2,6.4 0.9,0.2 4.5,0 4.7,-0.2 0.2,-0.2 -0.6,-2.3 -3.2,-8.1 L 277,106 l -3.9,-9 -1.5,-3.6 c -1.2,-2.9 -1,-2.8 -2.6,-2.9 -0.66667,0 -1.16667,0.06667 -1.5,0.2 m -48,0 c -0.5,0.2 -0.6,0.8 -0.4,5.1 0.1755,9.53231 0.20883,19.0667 0.1,28.6 0.3,0.2 3,0.3 3.6,0.1 l 0.4,-0.1 -0.1,-12.2 c -0.1,-15 -0.4,-14 3.3,-9.5 l 8.8,11 8.6,10.6 0.5,0.6 1.3,-0.1 c 2,-0.1 2,-0.3 1.9,-2.6 -0.39164,-10.16362 -0.35828,-20.33917 0.1,-30.5 0,-0.7 -0.3,-0.8 -2.2,-0.8 -2.3,0 -2.4,0.1 -2.3,1.7 0.2,1.8 0.5,15.8 0.4,19.1 0,5 0.2,5 -5.1,-1.5 L 224.8,93 c -2,-2.5 -2.9,-3 -5.2,-2.3 m 103,0.3 -0.3,0.6 -1.7,4.2 -4,9.5 -4.3,10.3 c -4.2,9.8 -4,8.7 -1.4,8.8 2.3,0 2.2,0 2.6,-1.2 l 2.7,-6.6 1,-2 0.5,-0.4 h 6.4 c 7.6,0 6.8,-0.2 7.8,2.2 3.6,8.7 3.2,8.2 5.9,8.1 3.3,0 3.3,0 1.5,-3.7 l -3.2,-7.2 c -1.2915,-2.64433 -2.45942,-5.34725 -3.5,-8.1 l -1.7,-3.9 c -2.93333,-7 -4.5,-10.566667 -4.7,-10.7 -0.5,-0.6 -3,-0.5 -3.5,0.1 M 104,91 c -1.9,0 -1.7,-0.7 -1.5,8.7 0.3,11.6 0.1,15.7 -0.7,17.6 -2.5,5.6 -13.2,5.6 -15.7,0 -0.7,-1.4 -1,-2.7 -1.1,-5.3 L 84.3,93.4 c 0,-2.5 0.1,-2.4 -2.5,-2.4 -2.9,0 -2.6,-1 -2.1,9.5 l 0.1,8 c 0,8.8 0.4,10.2 3.4,13.3 4.1,4.1 11.8,4.8 18,1.6 4,-2 5.5,-5.6 5.5,-13.2 0,-9 0,-18.9 -0.3,-19 -0.2,-0.2 -1,-0.266667 -2.4,-0.2 m 11.5,0 c -0.4,0.2 -0.4,0.3 -0.3,1.9 0.4,5.9 0.5,12 0.4,21.1 l 0.1,10.2 c 0.4,0.5 14,0.3 15.9,-0.2 9,-2.5 13.8,-10.6 12,-20.5 -1.3,-6.6 -6,-11 -13.3,-12.3 -1.7,-0.3 -14.1,-0.4 -14.8,-0.2 m 35.8,0 h -0.4 v 33.2 l 0.5,0.3 c 0.5,0.2 4,0.1 4.4,-0.2 -0.2577,-8.09795 -0.2577,-16.20205 0,-24.3 0.3,-9.4 0.3,-8.7 0,-8.8 0,-0.2 -4,-0.3 -4.5,-0.2 M 294,91 h -9.8 l -0.1,1.2 c -0.3,2.4 -0.4,2.3 5.2,2.3 4.2,0 4.6,0 4.9,0.3 0.2,0.3 0.3,18.2 0.2,29 0,0.7 0.2,0.8 2.6,0.8 2.7,0 2.7,0 2.5,-1.5 -0.1,-1.7 -0.3,-24.8 -0.2,-26.5 0.2,-2.3 -0.2,-2.1 5.3,-2.1 5.5,0 5.2,0.1 5.2,-1.7 0,-2 1,-2 -15.8,-1.8 m -246.6,0.2 -0.3,1.4 c 0,2 -0.5,1.9 5.8,1.9 h 5.4 l 0.2,0.4 c 0.4,0.6 0.6,8.5 0.6,19.5 v 9.7 l 0.4,0.3 c 0.4,0.3 4.1,0.4 4.9,0 h 0.4 l -0.1,-2.3 -0.6,-19 c -0.5,-9.8 -1.1,-8.6 4.6,-8.6 5.2,0 5,0.1 4.9,-2 V 91.1 H 47.2 m 299,0 c -0.13333,0.2 -0.2,0.566667 -0.2,1.1 l 0.1,16.4 c 0,12.4 0.1,15.6 0.3,15.8 0.3,0.3 19,0.3 19.4,0 0.2,-0.13333 0.3,-0.63333 0.3,-1.5 0,-2 0.5,-1.9 -7.6,-1.9 -6.8,0 -6.9,0 -7.2,-0.4 -0.615,-9.7546 -0.71514,-19.53485 -0.3,-29.3 -1.57312,-0.386353 -3.21215,-0.420499 -4.8,-0.1 m 25.6,0 v 28.1 l -0.2,4.8 0.3,0.3 c 0.4,0.3 0.7,0.3 2.5,0.2 2.5,0 2.8,-0.2 2.6,-1.2 -0.23856,-9.56485 -0.2719,-19.13372 -0.1,-28.7 0.2,-4 0.4,-3.7 -2.6,-3.7 z m -189.2,2.7 c 13.7,2 14.5,24.6 1,27.6 -8.5,1.9 -15.5,-4.4 -15.4,-14 0,-9 6.2,-14.8 14.4,-13.6 m -52.4,1.3 c 4.33333,1.466667 7,4.366667 8,8.7 1.6,8 -1.8,15 -8.2,16.8 -3.01308,0.46669 -6.07739,0.50037 -9.1,0.1 -0.4,-0.4 -0.6,-5.5 -0.8,-16.6 v -8.9 l 0.3,-0.4 c 3.25251,-0.575431 6.58878,-0.473301 9.8,0.3 m 138.4,3.4 c 0.2,0.1 1,1.9 1.7,3.8 3.2,7.8 3.2,8 2.6,8.4 -0.3,0.1 -8.5,0.2 -9.1,0 -0.86667,-0.0667 -0.46667,-1.9 1.2,-5.5 l 1.7,-4 c 1,-3 1.4,-3.4 2,-2.7 m 55.8,0 1.5,3.6 2,5.1 c 1.6,3.8 1.8,3.6 -4.1,3.6 -5.3,0 -5.4,0 -4.7,-1.6 l 1,-2.7 c 3.2,-8.2 3.6,-9 4.3,-8"
       data-index="0"
       fill="#7e5735"
       id="path1"
       sodipodi:nodetypes="cccscccccccccccccccccccscccccccccccccccccccccscccsccscccccccccccccccccccscccccccccccccccsccccccccccccccsccccscccccccccccccccccccccsccsccsscccsccscsccccsccccccscssccccccccccccccccccccccccccccccccccsccc" />
  </g>
  <path
     d="m 267.6,90.6 c -0.5,0.3 -0.6,0.5 -1.9,3.4 l -9,21.4 c -2,4.3 -3.4,8 -3.4,8.5 v 0.5 l 1.3,0.2 c 2.7,0.3 2.4,0.6 5.4,-6.8 1.7,-3.9 0.6,-3.5 8.3,-3.5 7.7,0 6.8,-0.4 8.5,3.7 2.1,5 2.8,6.3 3.2,6.4 0.9,0.2 4.5,0 4.7,-0.2 0.2,-0.2 -0.6,-2.3 -3.2,-8.1 L 277,106 l -3.9,-9 -1.5,-3.6 c -1.2,-2.9 -1,-2.8 -2.6,-2.9 -0.66667,0 -1.16667,0.06667 -1.5,0.2 m -48,0 c -0.5,0.2 -0.6,0.8 -0.4,5.1 0.1755,9.53231 0.20883,19.0667 0.1,28.6 0.3,0.2 3,0.3 3.6,0.1 l 0.4,-0.1 -0.1,-12.2 c -0.1,-15 -0.4,-14 3.3,-9.5 l 8.8,11 8.6,10.6 0.5,0.6 1.3,-0.1 c 2,-0.1 2,-0.3 1.9,-2.6 -0.39164,-10.16362 -0.35828,-20.33917 0.1,-30.5 0,-0.7 -0.3,-0.8 -2.2,-0.8 -2.3,0 -2.4,0.1 -2.3,1.7 0.2,1.8 0.5,15.8 0.4,19.1 0,5 0.2,5 -5.1,-1.5 L 224.8,93 c -2,-2.5 -2.9,-3 -5.2,-2.3 m 103,0.3 -0.3,0.6 -1.7,4.2 -4,9.5 -4.3,10.3 c -4.2,9.8 -4,8.7 -1.4,8.8 2.3,0 2.2,0 2.6,-1.2 l 2.7,-6.6 1,-2 0.5,-0.4 h 6.4 c 7.6,0 6.8,-0.2 7.8,2.2 3.6,8.7 3.2,8.2 5.9,8.1 3.3,0 3.3,0 1.5,-3.7 l -3.2,-7.2 c -1.2915,-2.64433 -2.45942,-5.34725 -3.5,-8.1 l -1.7,-3.9 c -2.93333,-7 -4.5,-10.566667 -4.7,-10.7 -0.5,-0.6 -3,-0.5 -3.5,0.1 M 294,91 h -9.8 l -0.1,1.2 c -0.3,2.4 -0.4,2.3 5.2,2.3 4.2,0 4.6,0 4.9,0.3 0.2,0.3 0.3,18.2 0.2,29 0,0.7 0.2,0.8 2.6,0.8 2.7,0 2.7,0 2.5,-1.5 -0.1,-1.7 -0.3,-24.8 -0.2,-26.5 0.2,-2.3 -0.2,-2.1 5.3,-2.1 5.5,0 5.2,0.1 5.2,-1.7 0,-2 1,-2 -15.8,-1.8 m 52.2,0.1 c -0.13333,0.2 -0.2,0.566667 -0.2,1.1 l 0.1,16.4 c 0,12.4 0.1,15.6 0.3,15.8 0.3,0.3 19,0.3 19.4,0 0.2,-0.13333 0.3,-0.63333 0.3,-1.5 0,-2 0.5,-1.9 -7.6,-1.9 -6.8,0 -6.9,0 -7.2,-0.4 -0.615,-9.7546 -0.71514,-19.53485 -0.3,-29.3 -1.57312,-0.386353 -3.21215,-0.420499 -4.8,-0.1 m 25.6,0 v 28.1 l -0.2,4.8 0.3,0.3 c 0.4,0.3 0.7,0.3 2.5,0.2 2.5,0 2.8,-0.2 2.6,-1.2 -0.23856,-9.56485 -0.2719,-19.13372 -0.1,-28.7 0.2,-4 0.4,-3.7 -2.6,-3.7 l -2.5,0.2 m -103.2,7.4 c 0.2,0.1 1,1.9 1.7,3.8 3.2,7.8 3.2,8 2.6,8.4 -0.3,0.1 -8.5,0.2 -9.1,0 -0.86667,-0.0667 -0.46667,-1.9 1.2,-5.5 l 1.7,-4 c 1,-3 1.4,-3.4 2,-2.7 m 55.8,0 1.5,3.6 2,5.1 c 1.6,3.8 1.8,3.6 -4.1,3.6 -5.3,0 -5.4,0 -4.7,-1.6 l 1,-2.7 c 3.2,-8.2 3.6,-9 4.3,-8"
     fill="#7e5735"
     id="path4"
     sodipodi:nodetypes="cccscccsccscccccccccccccccccccscccccccccccccccscccccccccccsccsccssccccscssccccccccccccccccccccccsccc" />
  <path
     d="m 262.30001,20.7 c -0.2,0.266667 -0.4,0.766667 -0.6,1.5 -1.2,4.533333 -3.76667,5.933333 -7.7,4.2 -4,-1.9 -7.2,-1.4 -10.5,1.7 -2.28794,1.950286 -3.45099,4.914186 -3.1,7.9 0.4,6 0,6.6 -9.8,13.4 -4.64683,3.18762 -9.21487,6.488611 -13.7,9.9 l -7.4,5.4 -4,3 c -3,2.2 -8,6.2 -9,7 -1,1 -0.63333,1.233333 1.1,0.7 8.74116,-4.185153 17.37715,-8.586507 25.9,-13.2 5.4,-2.7 5.7,-3 7.2,-6 3.28092,-6.500285 9.23277,-11.24716 16.3,-13 6.5,-2 8.6,-3.8 10.6,-8.9 0.72379,-2.001981 1.73433,-3.88831 3,-5.6 2.5,-3.6 3.2,-5.3 3,-7 -0.26667,-1.2 -0.7,-1.533333 -1.3,-1 m -10.5,7.3 c 6.5,2.3 3.2,12.1 -4.1,12.1 -5.1,0 -6.9,-4.7 -3.5,-9.5 1.73459,-2.378535 4.77198,-3.417642 7.6,-2.6 m -25.5,28.1 c 0.8,0.7 0.7,2.1 -0.2,2.6 -0.66667,0.4 -1.3,0.333333 -1.9,-0.2 -1.5,-1.2 0.5,-3.6 2,-2.4"
     style="fill:#7e5735"
     id="path1-5"
     sodipodi:nodetypes="cccccccccccccccccccscccccc" />
  <path
     d="m 201.20001,46.3 c 4.03232,0.903927 8.0344,1.937799 12,3.1 9.7,2.5 9.8,2.5 8.8,3.4 -4,3.5 -4.3,3.7 -6.1,2.8 l -5.1,-2.2 c -1.8,-1 -6,-2.8 -7.8,-3.6 -2.75664,-1.067854 -5.43059,-2.33798 -8,-3.8 -0.66667,-1.066667 1.4,-0.966667 6.2,0.3 m 33.4,13 c 5,4.7 7.1,5.3 12.3,3.6 1.3,-0.5 2.8,-0.9 3.5,-1 1,0 1.2,-0.1 1.7,-0.6 1.7,-1.5 3.4,-1.1 3.6,1 0.2,1 0.2,1 2,2.5 5.3,4.5 3.4,12.4 -3.5,13.7 -5,1 -9.4,-1.7 -11.8,-7.3 -1.5,-3.6 -3.8,-5.7 -8.1,-7.3 -2,-0.8 -4.7,-2 -5,-2.5 -0.53333,-0.333333 -0.26667,-0.766667 0.8,-1.3 l 2,-1.4 c 1,-1 0.8,-1 2.5,0.6 m 14.4,5.4 c -3.9,1.2 -4.9,6.4 -1.8,9.2 5.1,4.6 12.3,1.4 10.4,-4.7 -1,-3.1 -5.4,-5.4 -8.6,-4.5"
     style="fill:#cfbd9f;fill-opacity:1"
     id="path1-8"
     sodipodi:nodetypes="ccccccccccccccccccccccccc" />
</svg>
